<?xml version="1.0" standalone="no"?>
<!DOCTYPE svg PUBLIC "-//W3C//DTD SVG 20010904//EN"
 "http://www.w3.org/TR/2001/REC-SVG-20010904/DTD/svg10.dtd">
<svg version="1.0" xmlns="http://www.w3.org/2000/svg"
 width="1936.000000pt" height="778.000000pt" viewBox="0 0 1936.000000 778.000000"
 preserveAspectRatio="xMidYMid meet">

<g transform="translate(0.000000,778.000000) scale(0.100000,-0.100000)"
fill="#000000" stroke="none">
<path d="M613 7486 c-168 -41 -316 -181 -357 -338 -16 -58 -17 -311 -14 -3329
l3 -3265 38 -78 c76 -153 222 -254 397 -276 59 -7 2815 -10 9055 -8 l8970 3
66 22 c172 59 303 199 338 361 8 39 11 926 11 3275 0 2863 -2 3229 -15 3282
-44 168 -183 304 -360 350 -53 13 -1009 15 -9070 14 -7170 -1 -9021 -3 -9062
-13z m17631 -514 c164 -62 280 -175 320 -311 14 -49 16 -320 16 -2786 0 -2678
0 -2733 -19 -2788 -46 -134 -158 -239 -317 -299 l-59 -23 -8430 -3 c-6255 -2
-8445 0 -8490 9 -153 28 -301 136 -366 267 l-34 67 0 2775 0 2775 29 60 c36
72 139 179 213 218 28 15 85 36 125 47 72 19 224 19 8513 17 l8440 -2 59 -23z"/>
<path d="M1306 6889 c-129 -19 -260 -110 -313 -218 l-28 -56 0 -2730 c0 -2670
0 -2731 19 -2780 44 -112 181 -211 326 -234 91 -15 16729 -15 16820 0 137 21
264 109 317 218 l28 56 0 2735 0 2735 -28 56 c-54 112 -183 198 -322 219 -88
12 -16732 12 -16819 -1z m2404 -964 c213 -35 448 -136 790 -340 281 -168 413
-229 547 -253 l52 -9 122 278 123 279 103 0 103 0 -26 -57 c-14 -32 -334 -760
-711 -1618 -377 -858 -693 -1568 -702 -1578 -16 -16 -50 -17 -513 -15 l-496 3
544 1235 c299 679 544 1237 544 1240 0 10 -199 164 -259 201 -135 82 -329 120
-510 100 -236 -25 -335 -63 -1036 -396 -308 -146 -563 -264 -566 -263 -4 2 48
131 116 288 l122 285 74 58 c388 304 849 522 1194 566 113 14 283 12 385 -4z
m4863 -60 c117 -25 211 -77 303 -169 88 -88 138 -175 168 -292 22 -84 21 -223
-2 -304 -21 -73 -1057 -2445 -1080 -2472 -14 -17 -51 -18 -514 -18 -274 0
-498 2 -498 5 0 3 212 487 471 1077 285 647 474 1088 477 1113 6 59 -19 102
-73 126 -42 19 -70 19 -757 17 -708 -3 -713 -3 -753 -25 -51 -27 -76 -55 -108
-118 -13 -27 -230 -516 -482 -1085 -487 -1102 -482 -1091 -499 -1102 -6 -4
-231 -8 -500 -8 -386 0 -487 3 -483 13 15 39 720 1650 852 1947 253 572 343
732 508 907 206 218 478 351 807 392 36 5 522 9 1080 10 850 0 1026 -2 1083
-14z m4793 -17 c-7 -18 -95 -217 -195 -441 -99 -225 -181 -412 -181 -415 0 -3
-7 -14 -17 -24 -15 -17 -71 -18 -1372 -18 -1561 0 -1398 12 -1445 -104 -29
-74 -25 -99 20 -116 15 -6 359 -10 868 -10 806 0 846 -1 920 -20 241 -61 423
-246 472 -480 22 -103 13 -264 -20 -385 -31 -110 -113 -353 -155 -458 -106
-264 -238 -437 -424 -558 -153 -99 -379 -175 -592 -199 -57 -6 -637 -10 -1582
-10 -1417 0 -1492 1 -1486 18 17 45 392 895 398 901 4 3 625 8 1380 11 1355 5
1373 5 1395 25 23 21 70 116 70 143 0 8 -7 24 -17 34 -15 17 -53 18 -790 18
-481 0 -811 4 -871 11 -189 20 -348 93 -462 209 -111 113 -168 235 -191 405
-36 274 96 734 302 1050 71 108 205 238 303 294 128 73 284 121 456 140 41 5
785 9 1653 10 l1577 1 -14 -32z m1181 15 c-3 -10 -224 -515 -491 -1123 -267
-608 -486 -1117 -486 -1132 0 -15 10 -36 22 -48 20 -19 34 -20 205 -20 l183 0
35 33 c28 27 116 216 526 1142 270 611 498 1122 505 1138 l15 27 494 0 c272 0
495 -2 495 -4 0 -3 -220 -507 -490 -1120 -289 -659 -490 -1128 -490 -1146 0
-17 9 -39 21 -51 19 -19 30 -20 209 -17 189 3 190 3 216 29 25 26 99 189 741
1639 157 355 290 651 297 658 9 9 119 12 504 10 l491 -3 -363 -830 c-326 -746
-595 -1352 -770 -1735 -199 -436 -384 -594 -792 -677 -83 -17 -177 -18 -1454
-18 l-1365 0 -65 24 c-253 93 -396 351 -335 606 7 33 153 375 323 760 170 385
423 959 562 1275 140 316 258 581 263 588 7 9 120 12 504 12 467 0 495 -1 490
-17z m-9851 -3848 c118 -36 179 -148 179 -330 0 -185 -61 -294 -184 -331 -69
-21 -138 -13 -198 22 -109 63 -159 250 -117 435 39 170 166 251 320 204z
m1546 5 c73 -21 128 -87 128 -154 0 -32 -3 -36 -34 -42 -40 -7 -63 3 -79 36
-7 13 -24 32 -39 43 -23 17 -34 19 -64 11 -21 -5 -46 -21 -57 -36 -32 -43 -8
-69 105 -109 153 -55 195 -109 186 -240 -9 -117 -65 -174 -181 -186 -129 -13
-218 56 -242 188 -6 35 -5 36 25 43 64 12 77 8 84 -25 3 -17 19 -44 35 -60 24
-24 38 -29 76 -29 58 0 95 32 95 83 0 45 -18 59 -117 96 -104 37 -136 60 -162
114 -34 71 -23 165 27 221 43 48 135 68 214 46z m3144 -5 c86 -25 140 -96 169
-217 25 -109 12 -235 -34 -326 -29 -57 -79 -101 -135 -117 -64 -19 -101 -19
-161 1 -104 36 -162 137 -172 299 -16 265 128 421 333 360z m2285 -20 c68 -44
105 -156 57 -169 -50 -13 -66 -7 -95 36 -46 69 -118 75 -158 14 -32 -48 -13
-65 128 -117 134 -49 193 -156 155 -282 -16 -54 -73 -112 -123 -126 -145 -40
-273 35 -291 171 -6 41 -4 46 17 51 59 16 75 9 93 -37 21 -54 52 -76 106 -76
33 0 48 6 71 29 59 60 32 108 -80 146 -127 42 -176 85 -191 166 -18 97 29 189
111 217 57 19 153 8 200 -23z m1302 -2 c42 -29 79 -84 91 -135 6 -25 3 -27
-46 -38 -29 -6 -54 -7 -55 -3 -11 31 -48 75 -71 84 -15 6 -47 9 -72 6 -88 -10
-138 -101 -126 -232 10 -102 24 -145 61 -182 27 -27 41 -33 77 -33 81 0 137
46 138 113 0 26 -1 27 -60 27 l-60 0 0 55 0 55 110 0 110 0 0 -135 c0 -156 -1
-158 -99 -204 -74 -34 -175 -36 -237 -3 -95 49 -143 143 -151 293 -5 80 -2
109 15 165 44 145 128 208 265 200 56 -3 77 -9 110 -33z m3672 9 c53 -27 78
-55 112 -127 26 -56 28 -68 28 -190 0 -122 -2 -134 -28 -190 -52 -110 -110
-149 -222 -149 -165 0 -255 119 -255 339 0 131 26 212 88 274 26 26 63 52 82
58 50 17 148 10 195 -15z m-13224 -3 c11 -11 64 -109 117 -217 l97 -197 3 213
2 212 50 0 50 0 -2 -327 -3 -328 -43 -3 c-25 -2 -50 2 -59 9 -8 7 -59 101
-113 209 l-99 195 0 -202 -1 -203 -50 0 -50 0 0 323 c0 178 3 327 7 330 14 15
74 6 94 -14z m754 -8 c41 -23 91 -100 104 -161 29 -134 6 -323 -49 -399 -41
-59 -88 -74 -242 -79 l-138 -4 0 337 0 337 148 -7 c109 -5 155 -11 177 -24z
m893 7 c11 -13 63 -108 114 -213 l93 -190 3 208 2 207 50 0 50 0 0 -330 0
-330 -43 0 c-24 0 -50 6 -59 13 -9 6 -61 102 -117 212 l-100 200 0 -207 -1
-208 -50 0 -50 0 0 324 c0 250 3 325 13 329 31 13 75 6 95 -15z m1883 6 c14
-17 209 -609 209 -636 0 -14 -9 -18 -43 -18 -57 0 -72 14 -92 82 -9 32 -21 60
-26 64 -8 4 -128 7 -196 4 -6 0 -20 -31 -32 -69 -22 -74 -31 -81 -92 -81 -27
0 -39 4 -39 14 0 14 42 151 151 499 l50 157 48 0 c32 0 53 -5 62 -16z m552 4
c9 -7 60 -103 114 -213 l98 -200 3 208 2 207 50 0 50 0 0 -330 0 -330 -43 0
c-32 0 -49 6 -65 23 -11 12 -63 108 -114 212 l-93 190 -3 -207 -2 -208 -50 0
-50 0 0 323 c0 178 3 327 7 330 11 12 78 8 96 -5z m698 -5 c11 -11 209 -619
209 -641 0 -10 -15 -12 -57 -10 l-57 3 -21 67 c-11 37 -23 70 -27 73 -7 7
-197 9 -204 2 -3 -2 -15 -35 -27 -73 l-22 -69 -52 -3 c-46 -3 -53 -1 -53 16 0
29 186 621 201 638 14 18 92 15 110 -3z m1556 -5 c11 -13 63 -108 114 -213
l94 -190 3 208 2 207 50 0 50 0 0 -325 0 -325 -55 0 -55 0 -104 208 -105 207
0 -207 -1 -208 -50 0 -50 0 0 330 0 330 43 0 c32 0 49 -6 64 -22z m673 12 c11
-6 24 -19 30 -29 11 -21 200 -608 200 -622 0 -12 -77 -11 -100 1 -10 5 -28 38
-40 74 l-21 65 -92 3 c-51 2 -99 0 -107 -3 -8 -4 -24 -38 -35 -76 l-21 -68
-57 -3 c-31 -2 -57 0 -57 3 0 9 200 647 206 657 7 11 71 10 94 -2z m1842 -205
l107 -210 1 208 0 207 50 0 50 0 0 -330 0 -330 -43 0 c-29 0 -49 6 -59 18 -9
9 -60 105 -114 212 l-99 195 -3 -207 -2 -208 -45 0 -45 0 0 331 0 330 48 -3
47 -3 107 -210z m2426 168 c6 -27 25 -123 43 -215 19 -93 36 -168 39 -168 4 0
19 73 34 163 15 89 32 183 38 210 l10 47 54 0 c53 0 53 0 48 -27 -3 -16 -31
-163 -62 -328 l-58 -300 -50 -3 c-33 -2 -55 2 -61 10 -6 7 -33 113 -59 236
-26 122 -51 219 -54 215 -4 -5 -26 -100 -50 -213 -23 -113 -46 -215 -51 -227
-7 -19 -16 -23 -54 -23 -35 0 -48 5 -59 23 -13 19 -126 576 -126 620 0 14 10
17 53 17 l53 0 38 -212 c20 -117 38 -214 40 -215 2 -2 22 90 46 204 24 115 48
214 53 221 6 7 33 12 67 12 l58 0 10 -47z m638 30 c10 -10 61 -106 113 -213
l96 -195 3 208 2 207 50 0 50 0 0 -330 0 -330 -43 0 c-24 0 -50 6 -59 13 -9 6
-61 102 -117 212 l-100 200 0 -207 -1 -208 -50 0 -50 0 0 330 0 330 44 0 c29
0 51 -6 62 -17z m754 -12 c78 -39 126 -174 118 -331 -8 -148 -52 -246 -128
-285 -35 -17 -157 -28 -240 -19 l-70 7 0 330 0 330 143 -7 c105 -6 151 -12
177 -25z m1158 -18 c6 -27 25 -123 43 -215 19 -93 36 -168 39 -168 4 0 19 73
34 163 15 89 32 183 38 210 l10 47 54 0 c53 0 53 0 48 -27 -3 -16 -31 -163
-63 -328 l-57 -300 -54 0 c-48 0 -56 3 -66 25 -7 14 -32 119 -55 233 -23 114
-45 204 -49 200 -6 -7 -100 -437 -100 -456 0 -4 -27 -7 -60 -7 -54 0 -60 2
-65 23 -3 12 -30 155 -60 317 -31 162 -58 301 -60 308 -3 9 12 12 53 12 l58 0
38 -212 c20 -117 38 -214 40 -215 1 -2 22 91 46 205 24 114 48 213 53 220 6 7
33 12 67 12 l58 0 10 -47z m-14038 -288 l0 -325 -50 0 -50 0 0 325 0 325 50 0
50 0 0 -325z m2680 270 l0 -55 -140 0 -140 0 0 -70 0 -70 130 0 130 0 0 -55 0
-55 -130 0 -130 0 0 -90 0 -90 145 0 145 0 0 -55 0 -55 -200 0 -200 0 0 325 0
325 195 0 195 0 0 -55z m700 -270 l0 -325 -55 0 -55 0 0 325 0 325 55 0 55 0
0 -325z m2208 273 l-3 -53 -77 -3 -78 -3 0 -269 0 -270 -50 0 -50 0 0 254 c0
140 -3 261 -6 270 -5 13 -22 16 -80 16 l-74 0 0 55 0 55 211 0 210 0 -3 -52z
m172 -278 l0 -330 -50 0 -50 0 0 330 0 330 50 0 50 0 0 -330z m1860 60 l0
-270 130 0 130 0 0 -55 0 -55 -185 0 -185 0 0 325 0 325 55 0 55 0 0 -270z
m1130 -55 l0 -325 -55 0 -55 0 0 325 0 325 55 0 55 0 0 -325z m1328 53 l2
-268 130 0 130 0 0 -55 0 -55 -185 0 -185 0 0 326 0 325 53 -3 52 -3 3 -267z
m730 220 l-3 -53 -142 -3 -143 -3 0 -64 c0 -77 -6 -74 155 -78 l110 -2 0 -55
0 -55 -123 0 c-98 0 -125 -3 -132 -15 -5 -8 -10 -48 -10 -87 l0 -73 150 0 150
0 0 -55 0 -55 -200 0 -200 0 0 325 0 325 196 0 195 0 -3 -52z m1112 -273 l0
-325 -55 0 -55 0 0 325 0 325 55 0 55 0 0 -325z"/>
<path d="M4367 4972 c-10 -17 -947 -2150 -947 -2156 0 -3 121 -6 268 -6 244 0
270 2 284 18 9 9 161 348 338 752 178 404 367 830 421 947 55 116 99 214 99
216 0 3 -15 10 -32 17 -51 20 -317 154 -375 188 -29 17 -54 28 -56 24z"/>
<path d="M6369 5655 c-98 -18 -225 -58 -315 -100 -220 -101 -399 -292 -548
-585 -81 -158 -946 -2124 -946 -2149 0 -14 504 -15 529 -1 10 5 25 27 34 48
14 36 524 1189 787 1782 67 151 137 298 157 327 42 63 91 104 170 141 l58 27
771 3 c758 2 773 2 827 -18 148 -55 241 -226 208 -381 -7 -29 -196 -472 -421
-985 -226 -512 -410 -936 -410 -943 0 -13 526 -16 546 -3 10 6 544 1215 927
2097 107 246 123 308 107 407 -22 137 -108 250 -238 311 l-67 32 -1050 2
c-856 1 -1064 -1 -1126 -12z"/>
<path d="M10130 5655 c-130 -22 -202 -45 -305 -95 -200 -97 -298 -224 -428
-550 -192 -481 -136 -835 154 -973 140 -67 136 -67 1036 -67 519 0 821 -4 845
-10 20 -6 58 -25 84 -43 105 -70 134 -210 74 -351 -39 -91 -75 -141 -126 -177
-90 -61 -33 -59 -1450 -59 -1153 0 -1293 -2 -1304 -15 -14 -17 -220 -482 -220
-497 0 -12 2550 -10 2685 2 133 12 289 50 395 95 208 87 357 238 466 470 60
128 190 516 204 607 33 221 -88 418 -307 501 -58 22 -61 22 -938 27 -845 5
-882 6 -919 24 -50 25 -97 72 -122 122 -14 29 -19 60 -19 119 0 73 4 88 41
165 47 100 107 159 187 186 49 17 133 18 1347 15 1248 -3 1296 -2 1317 16 17
14 108 209 219 471 l14 32 -1427 -1 c-1114 -1 -1445 -4 -1503 -14z"/>
<path d="M15203 5669 c-9 -3 -202 -425 -489 -1073 -260 -587 -484 -1087 -498
-1111 -36 -61 -101 -113 -166 -132 -44 -13 -99 -17 -265 -16 -189 0 -215 2
-256 20 -118 53 -188 190 -160 315 6 26 54 145 107 265 363 823 754 1717 754
1725 0 4 -120 7 -271 6 l-271 -3 -541 -1225 c-522 -1181 -541 -1228 -545
-1295 -7 -133 55 -238 176 -297 l67 -33 1235 -3 c784 -2 1281 1 1360 7 153 13
269 41 379 92 207 96 292 208 469 614 38 88 129 293 202 455 103 230 713 1618
737 1678 4 10 -51 12 -268 10 l-273 -3 -472 -1065 c-259 -586 -488 -1091 -508
-1122 -39 -61 -104 -110 -170 -131 -27 -8 -113 -12 -251 -12 -210 0 -210 0
-267 28 -108 53 -165 153 -156 271 5 53 60 184 438 1044 237 541 430 985 428
987 -6 7 -508 10 -525 4z"/>
<path d="M4560 1898 c-63 -34 -103 -167 -82 -273 23 -113 68 -165 142 -165 76
0 119 51 140 169 9 53 9 76 -5 138 -22 99 -52 134 -121 140 -29 2 -59 -1 -74
-9z"/>
<path d="M9250 1897 c-110 -55 -116 -351 -8 -417 65 -39 143 -18 177 48 62
121 40 313 -41 362 -37 23 -91 26 -128 7z"/>
<path d="M16468 1895 c-97 -53 -105 -323 -11 -405 49 -43 110 -42 158 3 93 87
84 351 -15 402 -36 19 -97 19 -132 0z"/>
<path d="M3960 1688 l0 -218 65 0 c76 0 116 17 134 57 19 40 26 210 12 271
-18 73 -43 92 -135 101 l-76 7 0 -218z"/>
<path d="M6866 1752 c-16 -53 -31 -105 -33 -114 -5 -16 3 -18 65 -18 l70 0
-34 112 c-19 61 -36 113 -37 115 -2 1 -16 -41 -31 -95z"/>
<path d="M8140 1849 c0 -2 -13 -51 -30 -109 -16 -58 -30 -108 -30 -112 0 -5
29 -8 65 -8 36 0 65 3 65 6 0 10 -62 218 -66 223 -2 2 -4 2 -4 0z"/>
<path d="M10371 1780 c-12 -41 -28 -94 -36 -117 l-14 -43 70 0 c38 0 69 3 69
8 0 4 -16 57 -34 117 l-34 110 -21 -75z"/>
<path d="M15877 1893 c-4 -3 -7 -100 -7 -215 l0 -208 68 0 c127 0 157 41 156
215 0 134 -15 178 -68 200 -36 15 -137 21 -149 8z"/>
</g>
</svg>
